<svg width="28" height="28" viewBox="0 0 28 28" fill="none" xmlns="http://www.w3.org/2000/svg">
<path d="M27.6237 0.330773C28.0647 0.771738 28.0647 1.48668 27.6237 1.92765L1.92761 27.6238C1.48664 28.0647 0.771697 28.0647 0.330732 27.6238C-0.110233 27.1828 -0.110232 26.4679 0.330733 26.0269L26.0268 0.330773C26.4678 -0.110192 27.1828 -0.110192 27.6237 0.330773Z" fill="black"/>
<path d="M0.330723 0.330724C0.771688 -0.110241 1.48663 -0.110241 1.9276 0.330724L27.6237 26.0268C28.0647 26.4678 28.0647 27.1827 27.6237 27.6237C27.1827 28.0647 26.4678 28.0647 26.0268 27.6237L0.330724 1.9276C-0.110241 1.48663 -0.110241 0.771688 0.330723 0.330724Z" fill="black"/>
</svg>
