<svg width="22" height="24" viewBox="0 0 22 24" fill="none" xmlns="http://www.w3.org/2000/svg">
<path d="M20.1918 0.500695C20.4593 0.0218964 21.0519 -0.142151 21.5154 0.134284C21.9788 0.410718 22.1376 1.02295 21.87 1.50175L9.56783 23.5161C9.31092 23.9759 8.86965 24.0742 8.48651 23.9517C7.94752 23.7794 7.52355 23.1701 7.88958 22.5151L20.1918 0.500695Z" fill="#969696"/>
<path d="M1.80822 9.49634C1.54066 9.01754 0.948066 8.85349 0.48463 9.12993C0.0211949 9.40636 -0.13759 10.0186 0.129975 10.4974L7.40517 23.5161C7.66208 23.9759 8.10336 24.0742 8.48651 23.9517C9.02549 23.7794 9.44946 23.1701 9.08342 22.5151L1.80822 9.49634Z" fill="#969696"/>
</svg>
