<svg width="111" height="48" viewBox="0 0 111 48" fill="none" xmlns="http://www.w3.org/2000/svg">
<path d="M7.39685 21H5.58044V8.95898L1.93787 10.2969V8.65625L7.11365 6.71289H7.39685V21ZM22.0746 19.7207C22.7191 19.7207 23.2823 19.5254 23.764 19.1348C24.2458 18.7441 24.5127 18.2559 24.5648 17.6699H26.2738C26.2413 18.2754 26.0329 18.8516 25.6488 19.3984C25.2647 19.9453 24.7504 20.3815 24.1058 20.707C23.4678 21.0326 22.7907 21.1953 22.0746 21.1953C20.6358 21.1953 19.4899 20.7168 18.6371 19.7598C17.7907 18.7962 17.3676 17.4811 17.3676 15.8145V15.5117C17.3676 14.4831 17.5564 13.5684 17.934 12.7676C18.3116 11.9668 18.8519 11.3451 19.5551 10.9023C20.2647 10.4596 21.1013 10.2383 22.0648 10.2383C23.2497 10.2383 24.2328 10.5931 25.014 11.3027C25.8018 12.0124 26.2217 12.9336 26.2738 14.0664H24.5648C24.5127 13.3828 24.2523 12.8229 23.7836 12.3867C23.3213 11.944 22.7484 11.7227 22.0648 11.7227C21.1469 11.7227 20.434 12.0547 19.9261 12.7188C19.4248 13.3763 19.1742 14.3301 19.1742 15.5801V15.9219C19.1742 17.1393 19.4248 18.0768 19.9261 18.7344C20.4274 19.3919 21.1436 19.7207 22.0746 19.7207ZM30.2679 21H28.4613V6H30.2679V21ZM35.1312 21H33.3246V10.4336H35.1312V21ZM33.1781 7.63086C33.1781 7.33789 33.266 7.09049 33.4418 6.88867C33.6241 6.68685 33.891 6.58594 34.2426 6.58594C34.5941 6.58594 34.861 6.68685 35.0433 6.88867C35.2256 7.09049 35.3168 7.33789 35.3168 7.63086C35.3168 7.92383 35.2256 8.16797 35.0433 8.36328C34.861 8.55859 34.5941 8.65625 34.2426 8.65625C33.891 8.65625 33.6241 8.55859 33.4418 8.36328C33.266 8.16797 33.1781 7.92383 33.1781 7.63086ZM42.2699 19.7207C42.9144 19.7207 43.4776 19.5254 43.9594 19.1348C44.4411 18.7441 44.708 18.2559 44.7601 17.6699H46.4691C46.4366 18.2754 46.2282 18.8516 45.8441 19.3984C45.46 19.9453 44.9457 20.3815 44.3011 20.707C43.6631 21.0326 42.986 21.1953 42.2699 21.1953C40.8311 21.1953 39.6853 20.7168 38.8324 19.7598C37.986 18.7962 37.5629 17.4811 37.5629 15.8145V15.5117C37.5629 14.4831 37.7517 13.5684 38.1293 12.7676C38.5069 11.9668 39.0472 11.3451 39.7504 10.9023C40.46 10.4596 41.2966 10.2383 42.2601 10.2383C43.445 10.2383 44.4281 10.5931 45.2094 11.3027C45.9971 12.0124 46.417 12.9336 46.4691 14.0664H44.7601C44.708 13.3828 44.4476 12.8229 43.9789 12.3867C43.5166 11.944 42.9437 11.7227 42.2601 11.7227C41.3422 11.7227 40.6293 12.0547 40.1215 12.7188C39.6202 13.3763 39.3695 14.3301 39.3695 15.5801V15.9219C39.3695 17.1393 39.6202 18.0768 40.1215 18.7344C40.6228 19.3919 41.3389 19.7207 42.2699 19.7207ZM51.4496 16.1074L50.3168 17.2891V21H48.5101V6H50.3168V15.0723L51.2836 13.9102L54.5746 10.4336H56.7719L52.6605 14.8477L57.2504 21H55.1312L51.4496 16.1074Z" fill="black"/>
<path d="M70.1215 21C70.0173 20.7917 69.9327 20.4206 69.8676 19.8867C69.0277 20.7591 68.0251 21.1953 66.8597 21.1953C65.8181 21.1953 64.962 20.9023 64.2914 20.3164C63.6273 19.724 63.2953 18.9753 63.2953 18.0703C63.2953 16.9701 63.712 16.1172 64.5453 15.5117C65.3851 14.8997 66.5635 14.5938 68.0804 14.5938H69.8383V13.7637C69.8383 13.1322 69.6495 12.6309 69.2719 12.2598C68.8942 11.8822 68.3376 11.6934 67.6019 11.6934C66.9574 11.6934 66.417 11.8561 65.9808 12.1816C65.5446 12.5072 65.3265 12.901 65.3265 13.3633H63.5101C63.5101 12.8359 63.6957 12.3281 64.0668 11.8398C64.4444 11.3451 64.9522 10.9544 65.5902 10.668C66.2347 10.3815 66.9411 10.2383 67.7094 10.2383C68.9268 10.2383 69.8806 10.5443 70.5707 11.1562C71.2608 11.7617 71.6189 12.5983 71.6449 13.666V18.5293C71.6449 19.4993 71.7686 20.2708 72.016 20.8438V21H70.1215ZM67.1234 19.623C67.6898 19.623 68.2269 19.4766 68.7347 19.1836C69.2426 18.8906 69.6104 18.5098 69.8383 18.041V15.873H68.4222C66.2087 15.873 65.1019 16.5208 65.1019 17.8164C65.1019 18.3828 65.2907 18.8255 65.6683 19.1445C66.0459 19.4635 66.531 19.623 67.1234 19.623ZM83.4027 15.834C83.4027 17.4421 83.0349 18.7376 82.2992 19.7207C81.5635 20.7038 80.5674 21.1953 79.3109 21.1953C78.0284 21.1953 77.0192 20.7884 76.2836 19.9746V25.0625H74.4769V10.4336H76.1273L76.2152 11.6055C76.9509 10.694 77.973 10.2383 79.2816 10.2383C80.5511 10.2383 81.5538 10.7168 82.2894 11.6738C83.0316 12.6309 83.4027 13.9622 83.4027 15.668V15.834ZM81.5961 15.6289C81.5961 14.4375 81.3422 13.4967 80.8344 12.8066C80.3265 12.1165 79.6299 11.7715 78.7445 11.7715C77.6508 11.7715 76.8304 12.2565 76.2836 13.2266V18.2754C76.8239 19.2389 77.6508 19.7207 78.764 19.7207C79.6299 19.7207 80.3168 19.3789 80.8246 18.6953C81.3389 18.0052 81.5961 16.9831 81.5961 15.6289ZM94.6332 15.834C94.6332 17.4421 94.2653 18.7376 93.5297 19.7207C92.794 20.7038 91.7979 21.1953 90.5414 21.1953C89.2588 21.1953 88.2497 20.7884 87.514 19.9746V25.0625H85.7074V10.4336H87.3578L87.4457 11.6055C88.1814 10.694 89.2035 10.2383 90.5121 10.2383C91.7816 10.2383 92.7842 10.7168 93.5199 11.6738C94.2621 12.6309 94.6332 13.9622 94.6332 15.668V15.834ZM92.8265 15.6289C92.8265 14.4375 92.5726 13.4967 92.0648 12.8066C91.557 12.1165 90.8604 11.7715 89.975 11.7715C88.8812 11.7715 88.0609 12.2565 87.514 13.2266V18.2754C88.0544 19.2389 88.8812 19.7207 89.9945 19.7207C90.8604 19.7207 91.5472 19.3789 92.0551 18.6953C92.5694 18.0052 92.8265 16.9831 92.8265 15.6289ZM98.9008 21H97.0941V6H98.9008V21ZM105.258 18.3535L107.719 10.4336H109.653L105.405 22.6309C104.747 24.3887 103.702 25.2676 102.27 25.2676L101.928 25.2383L101.254 25.1113V23.6465L101.743 23.6855C102.355 23.6855 102.83 23.5618 103.168 23.3145C103.513 23.0671 103.797 22.6146 104.018 21.957L104.418 20.8828L100.649 10.4336H102.621L105.258 18.3535Z" fill="#6FDA44"/>
<path d="M7.68494 35.6482H4.67908V40.825H2.98279V28.0281H7.21912C8.66052 28.0281 9.76794 28.3562 10.5414 29.0125C11.3207 29.6687 11.7103 30.6238 11.7103 31.8777C11.7103 32.6746 11.4935 33.3689 11.0599 33.9607C10.6322 34.5525 10.0345 34.9949 9.26697 35.2878L12.2728 40.7195V40.825H10.4623L7.68494 35.6482ZM4.67908 34.2683H7.27185C8.10974 34.2683 8.77478 34.0515 9.26697 33.6179C9.76501 33.1843 10.014 32.6042 10.014 31.8777C10.014 31.0867 9.77673 30.4802 9.30212 30.0583C8.83337 29.6365 8.15369 29.4226 7.26306 29.4167H4.67908V34.2683ZM17.7748 41.0007C16.4857 41.0007 15.4369 40.5789 14.6283 39.7351C13.8197 38.8855 13.4154 37.7517 13.4154 36.3337V36.0349C13.4154 35.0916 13.5941 34.2507 13.9515 33.5125C14.3148 32.7683 14.8187 32.1882 15.4633 31.7722C16.1136 31.3503 16.8168 31.1394 17.5726 31.1394C18.809 31.1394 19.7699 31.5466 20.4554 32.3611C21.141 33.1755 21.4838 34.3416 21.4838 35.8591V36.5359H15.0414C15.0648 37.4734 15.3373 38.2322 15.8588 38.8123C16.3861 39.3865 17.0541 39.6736 17.8627 39.6736C18.4369 39.6736 18.9232 39.5564 19.3217 39.322C19.7201 39.0876 20.0687 38.7771 20.3676 38.3904L21.3607 39.1638C20.5638 40.3884 19.3685 41.0007 17.7748 41.0007ZM17.5726 32.4753C16.9164 32.4753 16.3656 32.7156 15.9203 33.196C15.475 33.6707 15.1996 34.3386 15.0941 35.2H19.8578V35.0769C19.8109 34.2507 19.5883 33.6121 19.1898 33.1609C18.7914 32.7039 18.2523 32.4753 17.5726 32.4753ZM24.9027 31.3152L24.9467 32.3699C25.6439 31.5496 26.5844 31.1394 27.7679 31.1394C29.098 31.1394 30.0033 31.6492 30.4838 32.6687C30.8002 32.2117 31.2103 31.8425 31.7142 31.5613C32.224 31.28 32.8246 31.1394 33.516 31.1394C35.6019 31.1394 36.6625 32.2439 36.6976 34.4529V40.825H35.0717V34.5496C35.0717 33.8699 34.9164 33.363 34.6058 33.0291C34.2953 32.6892 33.7738 32.5193 33.0414 32.5193C32.4379 32.5193 31.9369 32.7009 31.5385 33.0642C31.14 33.4216 30.9086 33.905 30.8441 34.5144V40.825H29.2094V34.5935C29.2094 33.2107 28.5326 32.5193 27.1791 32.5193C26.1127 32.5193 25.3832 32.9734 24.9906 33.8816V40.825H23.3646V31.3152H24.9027ZM38.7279 35.9822C38.7279 35.0505 38.9095 34.2126 39.2728 33.4685C39.642 32.7244 40.1517 32.1501 40.8021 31.7458C41.4584 31.3416 42.2054 31.1394 43.0433 31.1394C44.3383 31.1394 45.3842 31.5876 46.181 32.4841C46.9838 33.3806 47.3851 34.573 47.3851 36.0613V36.1755C47.3851 37.1013 47.2064 37.9333 46.849 38.6716C46.4974 39.4041 45.9906 39.9753 45.3285 40.3855C44.6722 40.7957 43.9164 41.0007 43.0609 41.0007C41.7719 41.0007 40.726 40.5525 39.9232 39.656C39.1263 38.7595 38.7279 37.573 38.7279 36.0964V35.9822ZM40.3627 36.1755C40.3627 37.2302 40.6058 38.0769 41.0922 38.7156C41.5844 39.3542 42.2406 39.6736 43.0609 39.6736C43.8871 39.6736 44.5433 39.3513 45.0297 38.7068C45.516 38.0564 45.7592 37.1482 45.7592 35.9822C45.7592 34.9392 45.5101 34.0955 45.0121 33.4509C44.5199 32.8005 43.8636 32.4753 43.0433 32.4753C42.2406 32.4753 41.5931 32.7947 41.101 33.4333C40.6088 34.072 40.3627 34.9861 40.3627 36.1755ZM51.6302 29.0125V31.3152H53.4056V32.572H51.6302V38.4695C51.6302 38.8503 51.7094 39.1375 51.8676 39.3308C52.0258 39.5183 52.2953 39.6121 52.6761 39.6121C52.8636 39.6121 53.1215 39.5769 53.4496 39.5066V40.825C53.0219 40.9421 52.6058 41.0007 52.2015 41.0007C51.475 41.0007 50.9271 40.781 50.558 40.3416C50.1888 39.9021 50.0043 39.2781 50.0043 38.4695V32.572H48.2728V31.3152H50.0043V29.0125H51.6302ZM59.2592 41.0007C57.9701 41.0007 56.9213 40.5789 56.1127 39.7351C55.3041 38.8855 54.8998 37.7517 54.8998 36.3337V36.0349C54.8998 35.0916 55.0785 34.2507 55.4359 33.5125C55.7992 32.7683 56.3031 32.1882 56.9476 31.7722C57.598 31.3503 58.3011 31.1394 59.057 31.1394C60.2933 31.1394 61.2543 31.5466 61.9398 32.3611C62.6254 33.1755 62.9681 34.3416 62.9681 35.8591V36.5359H56.5258C56.5492 37.4734 56.8217 38.2322 57.3431 38.8123C57.8705 39.3865 58.5385 39.6736 59.347 39.6736C59.9213 39.6736 60.4076 39.5564 60.806 39.322C61.2045 39.0876 61.5531 38.7771 61.8519 38.3904L62.8451 39.1638C62.0482 40.3884 60.8529 41.0007 59.2592 41.0007ZM59.057 32.4753C58.4008 32.4753 57.85 32.7156 57.4047 33.196C56.9594 33.6707 56.684 34.3386 56.5785 35.2H61.3422V35.0769C61.2953 34.2507 61.0726 33.6121 60.6742 33.1609C60.2758 32.7039 59.7367 32.4753 59.057 32.4753Z" fill="#6FDA44"/>
<path d="M74.9388 28.0281H76.6351V37.0896C76.6351 38.3142 76.266 39.2722 75.5277 39.9636C74.7953 40.655 73.8168 41.0007 72.5922 41.0007C71.3207 41.0007 70.3304 40.6755 69.6215 40.0251C68.9125 39.3748 68.558 38.4636 68.558 37.2917H70.2455C70.2455 38.0242 70.4447 38.5955 70.8431 39.0056C71.2474 39.4158 71.8304 39.6208 72.5922 39.6208C73.2894 39.6208 73.8519 39.4011 74.2797 38.9617C74.7133 38.5222 74.933 37.907 74.9388 37.116V28.0281ZM78.8236 35.9822C78.8236 35.0505 79.0052 34.2126 79.3685 33.4685C79.7377 32.7244 80.2474 32.1501 80.8978 31.7458C81.5541 31.3416 82.3011 31.1394 83.139 31.1394C84.434 31.1394 85.4799 31.5876 86.2767 32.4841C87.0795 33.3806 87.4808 34.573 87.4808 36.0613V36.1755C87.4808 37.1013 87.3021 37.9333 86.9447 38.6716C86.5931 39.4041 86.0863 39.9753 85.4242 40.3855C84.7679 40.7957 84.0121 41.0007 83.1566 41.0007C81.8676 41.0007 80.8217 40.5525 80.0189 39.656C79.222 38.7595 78.8236 37.573 78.8236 36.0964V35.9822ZM80.4584 36.1755C80.4584 37.2302 80.7015 38.0769 81.1879 38.7156C81.6801 39.3542 82.3363 39.6736 83.1566 39.6736C83.9828 39.6736 84.639 39.3513 85.1254 38.7068C85.6117 38.0564 85.8549 37.1482 85.8549 35.9822C85.8549 34.9392 85.6058 34.0955 85.1078 33.4509C84.6156 32.8005 83.9594 32.4753 83.139 32.4753C82.3363 32.4753 81.6888 32.7947 81.1967 33.4333C80.7045 34.072 80.4584 34.9861 80.4584 36.1755ZM97.5707 36.1755C97.5707 37.6287 97.2367 38.7976 96.5687 39.6824C95.9008 40.5613 95.0043 41.0007 93.8793 41.0007C92.6781 41.0007 91.7494 40.5759 91.0931 39.7263L91.014 40.825H89.5199V27.325H91.1459V32.3611C91.8021 31.5466 92.7074 31.1394 93.8617 31.1394C95.016 31.1394 95.9213 31.5759 96.5775 32.449C97.2396 33.322 97.5707 34.5173 97.5707 36.0349V36.1755ZM95.9447 35.991C95.9447 34.8835 95.7308 34.0281 95.3031 33.4246C94.8754 32.821 94.2601 32.5193 93.4574 32.5193C92.3851 32.5193 91.6146 33.0173 91.1459 34.0134V38.1267C91.6439 39.1228 92.4203 39.6208 93.475 39.6208C94.2543 39.6208 94.8607 39.3191 95.2943 38.7156C95.7279 38.1121 95.9447 37.2039 95.9447 35.991ZM105.164 38.3025C105.164 37.863 104.997 37.5232 104.663 37.283C104.335 37.0369 103.758 36.8259 102.932 36.6501C102.112 36.4744 101.458 36.2634 100.972 36.0173C100.492 35.7712 100.134 35.4783 99.8998 35.1384C99.6713 34.7986 99.557 34.3943 99.557 33.9255C99.557 33.1462 99.8851 32.4871 100.541 31.948C101.203 31.4089 102.047 31.1394 103.073 31.1394C104.151 31.1394 105.024 31.4177 105.692 31.9744C106.366 32.531 106.703 33.2429 106.703 34.1101H105.068C105.068 33.6648 104.877 33.281 104.496 32.9587C104.121 32.6365 103.647 32.4753 103.073 32.4753C102.481 32.4753 102.018 32.6042 101.684 32.8621C101.35 33.1199 101.183 33.4568 101.183 33.8728C101.183 34.2654 101.338 34.5613 101.649 34.7605C101.959 34.9597 102.519 35.1501 103.328 35.3318C104.142 35.5134 104.801 35.7302 105.305 35.9822C105.809 36.2341 106.181 36.5388 106.421 36.8962C106.667 37.2478 106.79 37.6785 106.79 38.1882C106.79 39.0378 106.451 39.7205 105.771 40.2361C105.091 40.7458 104.209 41.0007 103.125 41.0007C102.364 41.0007 101.69 40.866 101.104 40.5964C100.518 40.3269 100.058 39.9519 99.724 39.4714C99.3959 38.9851 99.2318 38.4607 99.2318 37.8982H100.858C100.887 38.4431 101.104 38.8767 101.508 39.199C101.918 39.5154 102.457 39.6736 103.125 39.6736C103.741 39.6736 104.233 39.5505 104.602 39.3044C104.977 39.0525 105.164 38.7185 105.164 38.3025Z" fill="black"/>
</svg>
