<svg width="44" height="48" viewBox="0 0 44 48" fill="none" xmlns="http://www.w3.org/2000/svg">
<path d="M11.1429 20.7143C10.2149 19.4471 9.71429 17.7767 9.71429 16.0893C9.71429 11.8653 12.6868 9 16.9107 9C21.1347 9 24 11.8653 24 16.0893C24 20.3133 21.1347 23.2857 16.9107 23.2857C15.2234 23.2857 13.5529 22.7851 12.2857 21.8571L7.14286 27L6 25.8571L11.1429 20.7143ZM16.9107 21.3929C19.8353 21.3929 22.2143 19.0139 22.2143 16.0893C22.2143 13.1647 19.8353 10.7857 16.9107 10.7857C13.9862 10.7857 11.6072 13.1647 11.6072 16.0893C11.6072 19.0139 13.9862 21.3929 16.9107 21.3929Z" fill="#969696"/>
<path d="M29 16.0893H36L32.5 22L29 16.0893Z" fill="#969696"/>
<path d="M5.08887 38.5635C3.96322 38.2399 3.1429 37.8434 2.62793 37.374C2.11751 36.9001 1.8623 36.3167 1.8623 35.624C1.8623 34.8402 2.17448 34.193 2.79883 33.6826C3.42773 33.1676 4.24349 32.9102 5.24609 32.9102C5.92969 32.9102 6.53809 33.0423 7.07129 33.3066C7.60905 33.571 8.02376 33.9355 8.31543 34.4004C8.61165 34.8652 8.75977 35.3734 8.75977 35.9248H7.44043C7.44043 35.3232 7.24902 34.8516 6.86621 34.5098C6.4834 34.1634 5.94336 33.9902 5.24609 33.9902C4.59896 33.9902 4.0931 34.1338 3.72852 34.4209C3.36849 34.7035 3.18848 35.0977 3.18848 35.6035C3.18848 36.0091 3.35938 36.3532 3.70117 36.6357C4.04753 36.9137 4.63314 37.1689 5.45801 37.4014C6.28743 37.6338 6.93457 37.8913 7.39941 38.1738C7.86882 38.4518 8.21517 38.7777 8.43848 39.1514C8.66634 39.5251 8.78027 39.9648 8.78027 40.4707C8.78027 41.2773 8.46582 41.9245 7.83691 42.4121C7.20801 42.8952 6.36719 43.1367 5.31445 43.1367C4.63086 43.1367 3.99284 43.0068 3.40039 42.7471C2.80794 42.4827 2.34993 42.1227 2.02637 41.667C1.70736 41.2113 1.54785 40.694 1.54785 40.1152H2.86719C2.86719 40.7168 3.08822 41.193 3.53027 41.5439C3.97689 41.8903 4.57161 42.0635 5.31445 42.0635C6.00716 42.0635 6.53809 41.9222 6.90723 41.6396C7.27637 41.3571 7.46094 40.972 7.46094 40.4844C7.46094 39.9967 7.29004 39.6208 6.94824 39.3564C6.60645 39.0876 5.98665 38.8232 5.08887 38.5635ZM13.3398 43.1367C12.3372 43.1367 11.5215 42.8086 10.8926 42.1523C10.2637 41.4915 9.94922 40.6097 9.94922 39.5068V39.2744C9.94922 38.5407 10.0882 37.8867 10.3662 37.3125C10.6488 36.7337 11.0407 36.2826 11.542 35.959C12.0479 35.6309 12.5947 35.4668 13.1826 35.4668C14.1442 35.4668 14.8916 35.7835 15.4248 36.417C15.958 37.0505 16.2246 37.9574 16.2246 39.1377V39.6641H11.2139C11.2321 40.3932 11.444 40.9834 11.8496 41.4346C12.2598 41.8812 12.7793 42.1045 13.4082 42.1045C13.8548 42.1045 14.2331 42.0133 14.543 41.8311C14.8529 41.6488 15.124 41.4072 15.3564 41.1064L16.1289 41.708C15.5091 42.6605 14.5794 43.1367 13.3398 43.1367ZM13.1826 36.5059C12.6722 36.5059 12.2438 36.6927 11.8975 37.0664C11.5511 37.4355 11.3369 37.9551 11.2549 38.625H14.96V38.5293C14.9235 37.8867 14.7503 37.39 14.4404 37.0391C14.1305 36.6836 13.7113 36.5059 13.1826 36.5059ZM22.2607 43C22.1878 42.8542 22.1286 42.5944 22.083 42.2207C21.4951 42.8314 20.7933 43.1367 19.9775 43.1367C19.2484 43.1367 18.6491 42.9316 18.1797 42.5215C17.7148 42.1068 17.4824 41.5827 17.4824 40.9492C17.4824 40.179 17.7741 39.582 18.3574 39.1582C18.9453 38.7298 19.7702 38.5156 20.832 38.5156H22.0625V37.9346C22.0625 37.4925 21.9303 37.1416 21.666 36.8818C21.4017 36.6175 21.012 36.4854 20.4971 36.4854C20.0459 36.4854 19.6676 36.5993 19.3623 36.8271C19.057 37.055 18.9043 37.3307 18.9043 37.6543H17.6328C17.6328 37.2852 17.7627 36.9297 18.0225 36.5879C18.2868 36.2415 18.6423 35.9681 19.0889 35.7676C19.54 35.5671 20.0345 35.4668 20.5723 35.4668C21.4245 35.4668 22.0921 35.681 22.5752 36.1094C23.0583 36.5332 23.3089 37.1188 23.3271 37.8662V41.2705C23.3271 41.9495 23.4137 42.4896 23.5869 42.8906V43H22.2607ZM20.1621 42.0361C20.5586 42.0361 20.9346 41.9336 21.29 41.7285C21.6455 41.5234 21.903 41.2568 22.0625 40.9287V39.4111H21.0713C19.5218 39.4111 18.7471 39.8646 18.7471 40.7715C18.7471 41.168 18.8792 41.4779 19.1436 41.7012C19.4079 41.9245 19.7474 42.0361 20.1621 42.0361ZM28.8848 36.7383C28.6934 36.7064 28.486 36.6904 28.2627 36.6904C27.4333 36.6904 26.8704 37.0436 26.5742 37.75V43H25.3096V35.6035H26.54L26.5605 36.458C26.9753 35.7972 27.5632 35.4668 28.3242 35.4668C28.5703 35.4668 28.7572 35.4987 28.8848 35.5625V36.7383ZM32.8838 42.1045C33.335 42.1045 33.7292 41.9678 34.0664 41.6943C34.4036 41.4209 34.5905 41.0791 34.627 40.6689H35.8232C35.8005 41.0928 35.6546 41.4961 35.3857 41.8789C35.1169 42.2617 34.7568 42.5671 34.3057 42.7949C33.859 43.0228 33.3851 43.1367 32.8838 43.1367C31.8766 43.1367 31.0745 42.8018 30.4775 42.1318C29.8851 41.4574 29.5889 40.5368 29.5889 39.3701V39.1582C29.5889 38.4382 29.721 37.7979 29.9854 37.2373C30.2497 36.6768 30.6279 36.2415 31.1201 35.9316C31.6169 35.6217 32.2025 35.4668 32.877 35.4668C33.7064 35.4668 34.3945 35.7152 34.9414 36.2119C35.4928 36.7087 35.7868 37.3535 35.8232 38.1465H34.627C34.5905 37.668 34.4082 37.276 34.0801 36.9707C33.7565 36.6608 33.3555 36.5059 32.877 36.5059C32.2344 36.5059 31.7354 36.7383 31.3799 37.2031C31.029 37.6634 30.8535 38.3311 30.8535 39.2061V39.4453C30.8535 40.2975 31.029 40.9538 31.3799 41.4141C31.7308 41.8743 32.2321 42.1045 32.8838 42.1045ZM38.5098 36.499C39.0703 35.8109 39.7995 35.4668 40.6973 35.4668C42.2604 35.4668 43.0488 36.3486 43.0625 38.1123V43H41.7979V38.1055C41.7933 37.5723 41.6702 37.1781 41.4287 36.9229C41.1917 36.6676 40.8203 36.54 40.3145 36.54C39.9043 36.54 39.5443 36.6494 39.2344 36.8682C38.9245 37.0869 38.6829 37.374 38.5098 37.7295V43H37.2451V32.5H38.5098V36.499Z" fill="#969696"/>
</svg>
