<svg width="19" height="18" viewBox="0 0 19 18" fill="none" xmlns="http://www.w3.org/2000/svg">
<path d="M5.57157 11.7143C4.64363 10.4471 4.143 8.77669 4.143 7.08931C4.143 2.86533 7.11548 0 11.3394 0C15.5634 0 18.4287 2.86533 18.4287 7.08931C18.4287 11.3133 15.5634 14.2857 11.3394 14.2857C9.65207 14.2857 7.98161 13.7851 6.71443 12.8571L1.57157 18L0.428715 16.8571L5.57157 11.7143ZM11.3394 12.3929C14.264 12.3929 16.643 10.0139 16.643 7.08931C16.643 4.16474 14.264 1.78574 11.3394 1.78574C8.41488 1.78574 6.0359 4.16474 6.0359 7.08931C6.0359 10.0139 8.41492 12.3929 11.3394 12.3929Z" fill="#969696"/>
</svg>
